<?xml version="1.0" encoding="UTF-8" standalone="no"?>
<!-- Created with Inkscape (http://www.inkscape.org/) -->

<svg
   version="1.1"
   id="svg9"
   width="503.67999"
   height="503.35999"
   viewBox="0 0 503.67999 503.35999"
   xmlns="http://www.w3.org/2000/svg"
   xmlns:svg="http://www.w3.org/2000/svg">
  <defs
     id="defs13" />
  <g
     id="g15">
    <path
       style="fill:#000000;stroke-width:0.32"
       d="M 239.53775,502.99799 C 200.22171,500.89012 165.15719,491.0562 130.79127,472.49978 102.60128,457.27818 77.125752,436.14602 56.281087,410.693 38.233193,388.65505 23.191178,361.50945 13.47344,333.44007 -1.6338102,289.80326 -4.1350222,240.05361 6.4669821,194.08008 14.122743,160.88236 29.411906,127.99418 50.041852,100.34715 61.400402,85.125098 75.689784,70.121207 90.897745,57.448353 102.36224,47.894945 117.25777,37.847979 130.79127,30.540358 162.67927,13.32194 194.59551,3.7858248 231.05775,0.582174 c 8.83465,-0.776232 32.76534,-0.776232 41.59999,0 36.46224,3.2036508 68.37847,12.739766 100.26647,29.958184 28.19001,15.22162 53.66553,36.353774 74.5102,61.806797 18.04787,22.037935 33.08989,49.183535 42.80765,77.252925 15.10723,43.63681 17.60845,93.38646 7.00643,139.35999 -7.65574,33.19773 -22.94489,66.08589 -43.57485,93.73293 -11.35855,15.22205 -25.64793,30.22595 -40.8559,42.89882 -11.46451,9.5534 -26.36003,19.60035 -39.89353,26.90796 -31.77763,17.15885 -64.16466,26.85306 -99.94647,29.91635 -5.62242,0.48135 -28.03945,0.8714 -33.43999,0.58186 z m 31.83999,-4.10774 c 47.37195,-4.00848 91.21578,-20.53556 128.8,-48.55162 10.75079,-8.01385 18.76512,-15.04749 28.96275,-25.41869 6.34202,-6.44995 13.99306,-14.96432 13.86202,-15.42617 -0.1521,-0.53603 -25.27827,-9.00237 -33.06477,-11.14131 -0.968,-0.26589 -2.552,-0.69437 -3.52,-0.95213 -0.968,-0.25779 -2.264,-0.60759 -2.88,-0.77731 -0.99232,-0.27344 -3.23213,-0.8016 -6.72,-1.58464 -5.26544,-1.18208 -12.11504,-2.42477 -15.04,-2.72861 -2.97565,-0.30912 -4.77961,-1.39466 -8.48,-5.10291 -5.80633,-5.81866 -10.17235,-13.59284 -14.29104,-25.44679 -1.44806,-4.16761 -1.76873,-5.2743 -3.15254,-10.88 -2.7152,-10.99926 -3.95085,-18.37203 -5.30934,-31.68 -1.58756,-15.55188 -2.28928,-48.48788 -1.06884,-50.16669 0.25396,-0.34937 1.35696,-1.80263 2.45108,-3.22947 4.53263,-5.91098 9.71036,-14.37081 11.09734,-18.13177 0.25801,-0.69964 0.77705,-2.06406 1.15344,-3.03206 0.83472,-2.14688 1.21843,-6.59902 0.65881,-7.64464 -0.21129,-0.39486 -0.50352,-1.39235 -0.64937,-2.21664 -0.42592,-2.40743 -1.91747,-9.69042 -2.23751,-10.92549 -0.1615,-0.62328 -0.52905,-2.06923 -0.8168,-3.21323 -1.123,-4.4648 -2.59366,-8.76577 -3.57785,-10.46351 -0.69626,-1.20101 -0.93786,-1.36497 -2.27811,-1.5459 -0.82461,-0.11132 -2.00327,-0.35799 -2.61927,-0.54815 -1.78633,-0.55144 -10.69248,-0.45404 -12.96,0.14173 -5.74985,1.51073 -9.89097,4.63148 -11.98742,9.03367 -1.46694,3.08032 -1.98029,5.86705 -1.94934,10.58216 0.0256,3.9207 0.23984,5.45936 1.42492,10.24 1.38317,5.5796 2.53831,10.38354 2.77005,11.52 0.14359,0.704 0.48637,2.21599 0.76173,3.35999 0.27539,1.144 0.63987,2.728 0.80995,3.52 0.17011,0.792 0.76179,3.528 1.31488,6.08 0.55306,2.552 1.12029,5.36 1.26045,6.24 0.14019,0.88 0.48336,2.752 0.76262,4.16 0.2793,1.408 0.6505,3.61411 0.82496,4.90246 0.17447,1.28835 0.39424,2.46711 0.48839,2.61947 0.0942,0.15236 0.31869,1.33025 0.49894,2.61754 0.18026,1.2873 0.54931,3.85253 0.8201,5.70053 0.78502,5.35682 1.05926,8.9519 1.26931,16.64 0.15901,5.8189 0.10317,7.62968 -0.2911,9.44 -1.67152,7.6752 -4.40301,11.47133 -13.33844,18.53744 -2.024,1.60058 -4.04,3.16388 -4.48,3.47399 -2.8855,2.03369 -7.59961,5.22649 -9.76,6.6103 -2.95656,1.89379 -12.58479,7.59059 -14.88,8.8041 -0.968,0.5118 -3.056,1.67628 -4.64,2.58774 -1.584,0.91146 -7.28891,3.91174 -12.67759,6.66726 l -9.7976,5.01012 -1.55041,2.62556 c -4.5286,7.66906 -12.01037,14.28608 -21.73439,19.22231 -1.936,0.98278 -4.168,2.0231 -4.96,2.31184 -6.9731,2.54214 -9.74003,3.36774 -14.88,4.43981 -4.44108,0.92627 -5.69244,1.12121 -8.32,1.29606 -1.408,0.0937 -3.496,0.39392 -4.64,0.66717 -1.144,0.27325 -2.48905,0.58019 -2.989,0.68211 -0.85331,0.17398 -0.90008,0.26618 -0.76347,1.50477 0.08,0.72569 0.30824,3.26342 0.50713,5.63942 0.19888,2.376 0.50057,5.904 0.67041,7.84 0.45728,5.21235 0.99813,14.43539 1.31356,22.4 0.15334,3.872 0.37503,9.272 0.49264,12 0.1972,4.57405 0.16695,5.01443 -0.38872,5.65939 -0.33141,0.38467 -2.25855,1.38189 -4.28255,2.21607 -10.11896,4.17033 -21.82433,10.81942 -34.13473,19.38976 -3.24197,2.25702 -10.96597,8.08086 -10.97598,8.2758 -0.0156,0.30365 11.30779,4.27559 17.59071,6.17034 19.99883,6.03107 39.44268,9.38419 61.28,10.56787 4.95995,0.26887 24.62926,-0.11427 30.23999,-0.58905 z M 158.78696,480.33869 c 1.40655,-1.30422 12.04606,-9.1798 15.70265,-11.62342 11.94031,-7.97942 19.12988,-11.88861 32.99443,-17.93997 l 1.2263,-0.53523 -0.1963,-2.72 c -0.10797,-1.496 -0.33542,-6.536 -0.50546,-11.2 -0.17003,-4.664 -0.38709,-9.056 -0.48235,-9.76 -0.0953,-0.704 -0.30903,-3.728 -0.47505,-6.72 -0.42259,-7.61638 -0.85516,-13.21561 -1.31369,-17.00454 l -0.39265,-3.24455 -1.94355,0.15239 c -1.06895,0.0838 -2.37554,0.27491 -2.90354,0.42467 -0.528,0.14976 -3.552,0.43408 -6.72,0.63181 -5.73698,0.35805 -10.67174,0.0803 -16,-0.90058 -2.1383,-0.39363 -6.28353,-1.84153 -8.5949,-3.00217 -8.30137,-4.16848 -14.27528,-12.20007 -16.25729,-21.85703 -0.51039,-2.48678 -0.67541,-6.59056 -0.31503,-7.8343 1.22266,-4.21955 1.32719,-5.10499 1.32536,-11.22669 -9.6e-4,-3.42045 -0.1593,-7.08301 -0.35174,-8.13901 -0.19244,-1.056 -0.46668,-3.072 -0.60944,-4.48 -0.44564,-4.39542 -0.94303,-7.76169 -1.2764,-8.63852 -0.17631,-0.46372 -0.31935,-1.22976 -0.31788,-1.70231 0.003,-0.83238 -0.72113,-4.31811 -1.31261,-6.32189 -0.15954,-0.54048 -0.29007,-1.35913 -0.29007,-1.81916 0,-0.46004 -0.15636,-1.24183 -0.34747,-1.73728 -0.19112,-0.49546 -0.46891,-1.54884 -0.61734,-2.34084 -0.28824,-1.5381 -0.76552,-3.61896 -1.24775,-5.44 -0.16313,-0.616 -0.53547,-2.056 -0.82744,-3.2 -1.49945,-5.87519 -2.55343,-9.56619 -3.92924,-13.76 -0.81344,-2.47959 -0.98157,-4.98682 -0.74532,-11.11471 0.10104,-2.62076 0.0939,-2.64786 -1.34956,-5.12 -2.15157,-3.68485 -3.86836,-8.47176 -4.73598,-13.20529 -0.56802,-3.09897 -0.57336,-13.16851 -0.008,-16 1.10799,-5.55387 2.37608,-10.06538 3.93063,-13.98408 0.38165,-0.96207 0.33539,-1.12698 -0.76386,-2.72303 -1.53678,-2.23133 -4.14486,-7.87324 -4.85055,-10.49288 -0.30817,-1.144 -0.76447,-2.78054 -1.01398,-3.63675 -0.64383,-2.20931 -0.6096,-9.35991 0.056,-11.69513 0.28031,-0.98347 0.66206,-2.36412 0.84833,-3.06812 0.49657,-1.87672 3.25789,-7.30029 4.95395,-9.73017 0.80996,-1.16041 2.23978,-2.90465 3.17737,-3.87608 l 1.7047,-1.76625 -0.31993,-2.07375 c -0.17596,-1.14057 -0.47522,-2.95856 -0.66502,-4.04 -0.59328,-3.38029 -0.0625,-14.08202 1.04525,-21.07375 0.19519,-1.232 0.46933,-3.032 0.60921,-4 0.13988,-0.968 0.48869,-2.768 0.77513,-4 0.28645,-1.232 0.63872,-2.816 0.78284,-3.52 0.14412,-0.704 0.42869,-1.784 0.63239,-2.4 0.20369,-0.616 0.51769,-1.624 0.69777,-2.24 1.3849,-4.73744 4.68893,-11.5877 7.48563,-15.52 1.29164,-1.81611 5.54715,-6.13854 7.13273,-7.2449 0.55292,-0.38581 0.77422,-0.92729 0.9123,-2.23224 0.79832,-7.54463 7.58384,-16.92017 16.60782,-22.947 3.13644,-2.094736 12.01713,-6.743015 14.19418,-7.429441 0.45963,-0.144921 2.0597,-0.720576 3.5557,-1.279229 1.496,-0.558652 3.152,-1.138409 3.68,-1.288348 0.528,-0.14994 1.752,-0.502672 2.72,-0.78385 4.17007,-1.21129 6.58736,-1.755146 7.81118,-1.757405 0.71985,-0.0013 2.17864,-0.143616 3.24177,-0.316192 1.06312,-0.172576 4.15912,-0.456457 6.88,-0.630851 7.05041,-0.451894 11.45402,-0.919648 12.14639,-1.290189 0.32922,-0.176195 1.05514,-0.320352 1.61314,-0.320352 0.55801,0 1.73131,-0.36 2.60733,-0.8 0.92484,-0.464521 2.15206,-0.802406 2.92648,-0.80574 0.73354,-0.0032 2.70171,-0.216573 4.37371,-0.47426 4.30198,-0.663014 21.71317,-0.664272 26.10788,-0.0019 1.74466,0.262964 3.92605,0.478964 4.84752,0.48 0.92148,9.6e-4 2.28948,0.142103 3.04,0.313476 1.68413,0.38455 4.87822,0.995011 6.16459,1.178191 0.528,0.07519 1.68,0.337994 2.56,0.584016 0.88,0.24602 2.248,0.613901 3.04,0.817514 0.792,0.20361 1.91289,0.572362 2.49086,0.819446 0.57797,0.247085 1.2287,0.449245 1.44606,0.449245 0.57816,0 4.82826,1.825987 7.24888,3.114359 2.62664,1.398032 5.14961,3.05216 7.2142,4.729839 0.88,0.715085 2.248,1.559285 3.04,1.875995 4.05098,1.61996 9.81239,4.742196 12.96061,7.023666 5.16147,3.74041 12.28211,10.41302 14.23165,13.33614 0.41085,0.616 0.91283,1.264 1.11549,1.44 1.3544,1.17607 6.50307,9.25484 8.52841,13.38187 2.87693,5.8624 5.56176,12.97298 7.02986,18.61812 0.18307,0.704 0.53417,2 0.78019,2.88 0.24602,0.88 0.51786,2.032 0.60406,2.56 0.0862,0.528 0.38215,2.112 0.65764,3.52 0.27545,1.408 0.62995,3.74081 0.78771,5.18401 0.15776,1.4432 0.38457,2.78212 0.504,2.97536 0.79753,1.29045 1.20761,21.38422 0.66125,32.40143 l -0.2817,5.6808 0.81322,1.5192 c 1.03811,1.9393 2.50166,6.26114 3.60284,10.6392 0.28775,1.144 0.6553,2.58996 0.8168,3.21324 0.32004,1.23507 1.81159,8.51806 2.23751,10.92548 0.14585,0.8243 0.40454,1.7603 0.57488,2.08 0.84227,1.58086 0.69862,7.39551 -0.24755,10.02128 -2.8952,8.03444 -6.97351,15.23568 -13.40906,23.67683 l -2.07129,2.71682 -0.13751,5.44318 c -0.13533,5.35658 0.36544,23.21779 0.8793,31.36317 0.74166,11.75603 2.57958,25.50109 4.664,34.88 1.56816,7.05603 2.9631,12.18605 4.56822,16.8 3.88742,11.1745 7.94048,18.3968 13.48947,24.03728 3.40547,3.46163 4.74352,4.27907 7.52333,4.5961 2.95514,0.33699 9.93408,1.61532 14.87667,2.72492 3.48787,0.78304 5.72768,1.3112 6.72,1.58464 0.616,0.16973 1.912,0.51952 2.88,0.77732 3.94903,1.05161 5.49315,1.49824 10.08,2.91564 8.88346,2.74509 18.92323,6.17319 26.01354,8.88234 1.50601,0.57542 1.73632,0.59309 2.08,0.15946 29.87811,-37.69914 48.25753,-83.24855 52.84208,-130.95767 C 504.1715,221.40981 491.43188,167.0884 462.97313,121.12008 453.04021,105.07582 442.69285,91.927459 429.13774,78.125578 416.05992,64.809665 403.62337,54.493226 388.97774,44.811812 353.45979,21.332864 314.56829,7.9072943 271.05774,4.1051555 c -8.72396,-0.7623372 -29.67603,-0.7623372 -38.39999,0 C 189.1472,7.9072943 150.25569,21.332864 114.73775,44.811812 94.2581,58.349773 75.213909,75.625357 59.161087,95.227155 33.387874,126.69833 15.353068,165.68814 7.7378592,206.40008 -3.5304902,266.6422 8.289118,329.49963 40.742351,381.92007 c 9.932925,16.04426 20.280291,29.19261 33.835395,42.9945 20.221596,20.58976 41.114034,35.82172 66.720004,48.64336 4.78879,2.39788 15.90491,7.48646 16.48327,7.54547 0.0898,0.009 0.54247,-0.33495 1.00594,-0.76471 z M 89.457745,412.91201 c -2.880435,-0.27882 -4.511676,-0.88474 -7.208678,-2.6777 -5.431251,-3.61069 -9.083875,-9.51168 -9.491609,-15.33417 -0.644775,-9.20736 7.273075,-17.85373 17.53669,-19.15021 5.611907,-0.7089 10.709982,1.21385 14.892172,5.61664 2.54768,2.68205 3.65256,4.69699 4.58673,8.3647 1.62672,6.38679 -0.11355,12.1016 -5.2753,17.32336 -4.55024,4.60314 -9.217762,6.42093 -15.040005,5.85738 z m 6.423034,-6.33939 c 3.124924,-1.5384 6.393701,-4.868 8.008061,-8.15706 1.19283,-2.43027 1.24823,-2.6817 1.2338,-5.6 -0.0126,-2.54736 -0.1428,-3.32157 -0.78301,-4.65549 -0.99579,-2.07481 -4.51928,-5.58726 -6.561885,-6.54128 -4.492838,-2.09843 -10.483718,-0.57955 -15.278684,3.87363 -6.000317,5.57268 -6.126237,12.70912 -0.326016,18.47716 2.966422,2.94995 5.264179,3.92035 8.93415,3.77312 2.183526,-0.0876 2.962688,-0.2786 4.773584,-1.17008 z m -38.28438,-27.77888 c -3.742461,-5.76052 -7.500666,-11.52045 -8.351565,-12.79984 -0.850899,-1.2794 -1.547088,-2.45364 -1.547088,-2.60944 0,-0.15581 0.818214,-0.74506 1.818253,-1.30944 2.159344,-1.21866 1.565558,-1.73866 5.42408,4.74992 1.63966,2.75731 2.882272,4.52508 3.117353,4.43488 0.214992,-0.0825 6.108128,-3.77024 13.095856,-8.19501 6.987728,-4.42477 12.903174,-8.12109 13.145433,-8.21405 0.280749,-0.10771 0.918874,0.54739 1.759751,1.80662 0.7256,1.0866 1.308924,2.0672 1.296275,2.17917 -0.01264,0.11194 -5.913763,4.09152 -13.11359,8.84352 -7.199827,4.752 -13.093478,8.74771 -13.097002,8.87939 -0.0035,0.13165 1.405159,2.21965 3.130407,4.64 1.725248,2.42032 3.249644,4.58692 3.387548,4.81463 0.31568,0.52125 -0.198342,1.14598 -1.914396,2.32665 l -1.346842,0.92666 z M 45.9507,360.21966 c -3.498861,-7.29034 -12.336694,-26.76835 -12.255808,-27.01101 0.09852,-0.29555 3.776649,-1.94262 3.948838,-1.76829 0.0433,0.0438 1.046195,2.45571 2.228663,5.35971 1.182464,2.904 2.259136,5.40103 2.392601,5.54896 0.133463,0.14791 4.110432,-1.42006 8.837706,-3.48438 4.727276,-2.06435 10.323046,-4.5073 12.435046,-5.4288 2.112,-0.92147 4.685916,-2.0535 5.719817,-2.51562 1.033901,-0.46208 1.986234,-0.84016 2.116301,-0.84016 0.215165,0 1.736902,3.13072 1.981398,4.07639 0.09303,0.35984 -3.374025,2.08406 -22.617516,11.24806 -2.464,1.17341 -4.768,2.30055 -5.12,2.5048 -0.613792,0.35613 -0.531891,0.58845 2,5.67354 1.452,2.91622 2.64,5.443 2.64,5.6151 0,0.1721 -0.841709,0.73779 -1.870461,1.25712 l -1.870461,0.94419 z M 31.210089,327.12007 c -1.027137,-2.78412 -1.708458,-5.20841 -1.514361,-5.38844 0.604426,-0.56058 34.056027,-11.24698 34.313816,-10.96182 0.272503,0.30144 1.649795,4.33534 1.523376,4.46175 -0.09279,0.0928 -33.901729,12.28851 -34.066171,12.28851 -0.06,0 -0.175496,-0.18 -0.25666,-0.4 z m -4.780344,-15.33793 c -0.413061,-1.20358 -1.131866,-4.45025 -1.130957,-5.10825 8e-4,-0.56946 1.458632,-2.08426 5.960935,-6.19382 9.82465,-8.96762 13.610321,-12.31471 14.568676,-12.88082 0.500141,-0.29544 0.909347,-0.62538 0.909347,-0.73321 0,-0.10782 -0.704528,-0.35867 -1.565619,-0.55743 -1.998493,-0.46131 -24.705541,-9.25198 -25.221712,-9.76418 -0.213032,-0.2114 -0.50842,-1.64879 -0.656418,-3.19422 -0.256983,-2.68345 -0.239558,-2.8162 0.387331,-2.95082 0.788714,-0.16938 33.675605,-3.03932 34.827791,-3.03932 0.747664,0 0.822025,0.13992 1.030905,1.93964 0.123815,1.0668 0.144701,2.02005 0.04641,2.11834 -0.152224,0.15222 -18.578739,2.43494 -25.283493,3.13218 -1.241852,0.12914 -2.074121,0.34892 -1.916851,0.50619 0.152873,0.15287 5.388533,2.17006 11.634802,4.48265 6.246269,2.31258 11.60255,4.33606 11.902851,4.49661 0.722966,0.38654 1.286278,2.43142 0.879286,3.19189 -0.278784,0.52091 -5.162617,4.9334 -13.425286,12.12959 -4.46702,3.89046 -5.825113,5.16447 -5.67032,5.31926 0.07608,0.0761 3.795024,-0.7942 8.264323,-1.93394 16.933648,-4.31837 18.339296,-4.64449 18.549898,-4.30373 0.297472,0.48132 1.063968,3.78478 0.907638,3.91175 -0.07235,0.0588 -6.467539,1.87513 -14.211539,4.03636 -13.020291,3.63379 -18.667485,5.22212 -20.081576,5.64815 -0.309325,0.0932 -0.62664,-0.0204 -0.706425,-0.25287 z M 448.45774,272.76007 c 0.11002,-0.55 0.2,-1.42054 0.2,-1.93454 0,-1.60771 1.05952,-2.26752 5.50986,-3.43123 2.23843,-0.58533 4.20211,-1.22848 4.36371,-1.42923 0.16163,-0.20075 0.39734,-3.7544 0.52381,-7.89701 l 0.22998,-7.53202 -4.35702,-1.55924 c -2.39639,-0.85759 -4.48835,-1.71746 -4.64883,-1.91083 -0.16052,-0.19337 -0.32272,-1.3583 -0.36052,-2.58874 -0.0777,-2.52921 -0.25075,-2.44866 2.73901,-1.27455 1.056,0.4147 5.016,1.96677 8.8,3.44904 3.784,1.48228 10.87498,4.26404 15.7577,6.1817 l 8.87769,3.48665 0.003,3.12687 c 0.003,2.94065 -0.0406,3.14489 -0.71769,3.42973 -0.396,0.16659 -7.992,2.4615 -16.88,5.09982 -8.888,2.63832 -16.88,5.01738 -17.76,5.2868 -2.32896,0.71304 -2.51504,0.67197 -2.28,-0.50322 z m 22.3407,-10.21027 c 3.92663,-1.23765 7.7513,-2.40674 8.4993,-2.59798 0.748,-0.19125 1.35728,-0.43863 1.35392,-0.54973 -0.006,-0.19714 -16.57245,-7.09491 -17.01942,-7.08634 -0.35741,0.007 -0.53149,1.70863 -0.74506,7.28432 -0.17322,4.52289 -0.13594,5.2 0.2864,5.2 0.26707,0 3.69824,-1.01262 7.62486,-2.25027 z M 44.337746,258.88454 c -5.456,-2.0043 -13.577147,-4.98525 -18.046993,-6.62432 l -8.126994,-2.98014 0.06634,-3.04 c 0.03649,-1.672 0.165634,-3.13223 0.286994,-3.24496 0.12136,-0.11272 4.252655,-1.50595 9.180654,-3.09607 4.928,-1.59011 13.064,-4.21577 18.08,-5.83477 5.016,-1.61901 9.250941,-3.02046 9.410979,-3.11432 0.304467,-0.17858 0.06317,3.53182 -0.28944,4.45071 -0.26287,0.68503 -0.974163,0.98029 -5.293843,2.19744 -2.017232,0.56839 -3.847696,1.17899 -4.067696,1.35688 -0.299667,0.24232 -0.4,2.22743 -0.4,7.91416 v 7.5907 l 4.154125,1.35406 c 2.284768,0.74474 4.430675,1.59528 4.768678,1.89011 0.721066,0.62896 1.211859,4.8685 0.560349,4.84038 -0.199734,-0.009 -4.827152,-1.65556 -10.283153,-3.65986 z m -3.2,-12.35113 c 0,-6.03675 -0.01818,-6.2102 -0.64,-6.10309 -1.309974,0.22566 -16.490591,5.66045 -16.563842,5.93 -0.04189,0.15414 1.291842,0.76289 2.963842,1.35278 1.672,0.58989 5.416,1.99682 8.32,3.12653 2.904,1.1297 5.424,2.02095 5.6,1.98055 0.199824,-0.0459 0.32,-2.40684 0.32,-6.28677 z m 411.732574,-7.59935 c -4.65376,-4.77785 -5.92659,-13.38521 -2.8664,-19.38369 2.24384,-4.3983 5.83632,-7.28535 11.37417,-9.1407 12.27354,-4.11201 22.54707,2.28524 24.09338,15.00274 0.27875,2.29252 0.25507,3.40167 -0.11879,5.56815 -0.43507,2.52115 -1.7759,5.90391 -2.93238,7.39808 -0.46688,0.60321 -0.51222,0.59433 -1.82685,-0.35799 -2.1927,-1.58839 -2.28307,-1.88698 -1.22269,-4.04023 1.29664,-2.63305 1.78119,-5.81343 1.3154,-8.63396 -0.96861,-5.86508 -4.55639,-9.40213 -10.38935,-10.24245 -1.94896,-0.28078 -2.85065,-0.24308 -5.19277,0.21711 -5.32217,1.04571 -8.90617,3.41449 -10.71001,7.07862 -2.17414,4.41634 -1.46819,9.78608 1.81616,13.81419 0.59814,0.73362 1.08755,1.46039 1.08755,1.61506 0,0.3429 -2.32835,2.65109 -2.67427,2.65109 -0.136,0 -0.92493,-0.69571 -1.75315,-1.54602 z M 51.28908,217.22949 c -0.794275,-0.65977 -1.351334,-1.39643 -1.351334,-1.78702 0,-0.36913 0.78856,-1.49126 1.773958,-2.52434 2.114231,-2.21655 3.053584,-4.18306 3.266768,-6.83889 0.161415,-2.01087 -0.259571,-3.36354 -1.479315,-4.75322 -1.43216,-1.63168 -4.584304,-2.28629 -6.425184,-1.33433 -1.169955,0.605 -2.839139,2.57671 -3.847174,4.54443 -3.534627,6.89971 -6.845584,9.47686 -11.47606,8.93264 -8.073051,-0.94883 -11.309576,-9.31697 -7.097733,-18.35141 0.914026,-1.9606 3.896289,-5.51727 4.626215,-5.51727 0.58171,0 2.738525,2.36486 2.738525,3.00269 0,0.31663 -0.790043,1.52751 -1.755651,2.69084 -0.992711,1.19598 -1.993972,2.81725 -2.304063,3.7308 -1.601457,4.71802 0.364888,8.86216 4.244914,8.94628 1.953447,0.0424 3.371987,-1.24419 6.0548,-5.4914 2.880967,-4.56092 4.071949,-6.016 5.843863,-7.13971 1.820175,-1.15433 3.795251,-1.45916 6.115167,-0.94381 2.410301,0.53542 3.980304,1.37225 5.842528,3.11415 3.813482,3.56706 4.570547,9.53319 1.879146,14.80878 -0.941472,1.84543 -3.390787,4.91921 -4.380502,5.49733 -0.904759,0.52849 -0.936352,0.52032 -2.268868,-0.58654 z m 397.78466,-8.90427 c -6.31379,-4.25195 -8.71065,-14.39304 -5.09037,-21.5373 2.58375,-5.09882 8.8026,-9.35176 15.38336,-10.52037 3.96547,-0.70419 8.18099,0.0222 11.51879,1.98482 1.95331,1.14854 4.78371,4.21645 6.04083,6.54771 2.64781,4.91025 3.37734,10.88612 1.89465,15.52 -1.08934,3.40454 -1.03164,3.36411 -3.19539,2.24 -2.11101,-1.0967 -2.14182,-1.21464 -1.21312,-4.64 1.28666,-4.7454 -0.72112,-11.07866 -4.40221,-13.88637 -5.14953,-3.92774 -14.46259,-2.43769 -19.68985,3.1503 -2.95686,3.16088 -3.93075,7.08829 -2.74701,11.07799 0.84976,2.86403 1.91485,4.61148 3.83991,6.30008 l 1.82454,1.60042 -0.67971,1.09984 c -0.37386,0.60492 -0.94371,1.33873 -1.26637,1.63071 -0.55133,0.49896 -0.68464,0.46483 -2.21805,-0.56783 z M 49.137746,188.94559 c -4.934528,-0.52213 -10.380089,-3.19438 -13.116704,-6.43665 -1.299894,-1.54009 -2.628262,-4.51793 -3.238064,-7.25886 -1.626622,-7.31136 2.673392,-17.62008 9.051696,-21.70023 0.919779,-0.58837 1.800362,-1.06977 1.956842,-1.06977 0.364992,0 1.98623,2.96534 1.98623,3.63293 0,0.27849 -0.782141,1.09686 -1.738093,1.81861 -2.2031,1.66335 -4.199619,4.30103 -5.433984,7.17904 -0.874364,2.03863 -0.965852,2.57926 -0.976345,5.76942 -0.01021,3.09886 0.07879,3.68947 0.74376,4.93652 2.529638,4.74394 8.270969,7.8445 14.489516,7.82495 5.621271,-0.0177 9.950003,-3.24037 12.135543,-9.03481 0.864793,-2.29279 1.21255,-6.46919 0.580326,-6.96939 -0.850723,-0.67307 -6.493734,-2.99201 -6.706419,-2.75593 -0.118259,0.13126 -0.617165,1.17466 -1.108679,2.31866 -1.301347,3.02889 -1.371168,3.07892 -3.318828,2.37856 -0.894739,-0.32175 -1.629181,-0.73654 -1.632096,-0.92178 -0.01033,-0.65597 4.253062,-10.09678 4.559619,-10.09678 0.29943,0 1.206899,0.41351 9.100768,4.14703 4.131072,1.95385 4.003075,1.74606 3.986323,6.47122 -0.01578,4.45272 -1.374739,8.36848 -4.373088,12.60082 -3.676982,5.19028 -10.071392,7.89409 -16.948323,7.16644 z M 440.97774,173.55984 c -2.03693,-0.33032 -5.0872,-1.74646 -6.76544,-3.14098 -1.63072,-1.35501 -3.43053,-4.18791 -4.36227,-6.86613 -0.68778,-1.97703 -0.77037,-2.66046 -0.63491,-5.25405 0.13859,-2.65399 0.28889,-3.24388 1.36886,-5.37155 1.74522,-3.43835 3.81559,-5.20973 10.4704,-8.9583 3.03786,-1.71118 7.63389,-4.31218 10.21341,-5.78 2.57955,-1.46781 4.83744,-2.66875 5.0176,-2.66875 0.32758,0 2.93235,4.45531 2.93235,5.01562 0,0.16326 -4.57078,2.66553 -10.15731,5.5606 -9.06038,4.69531 -10.37094,5.4739 -12.13526,7.2094 -1.61636,1.58996 -2.076,2.28295 -2.51437,3.79092 -0.92506,3.18209 0.0182,6.48991 2.55379,8.95406 2.24832,2.18513 5.44966,2.95992 8.60723,2.08316 1.07728,-0.29912 11.54032,-4.54191 19.30141,-7.82676 1.43853,-0.60885 2.75433,-1.107 2.92403,-1.107 0.45744,0 2.4399,5.11174 2.10451,5.42638 -0.25805,0.24206 -7.56086,3.1032 -18.07334,7.08086 -2.35533,0.89121 -5.05702,1.66754 -6.50314,1.86867 -1.36064,0.18925 -2.49945,0.32725 -2.53072,0.30668 -0.0314,-0.0206 -0.84883,-0.16585 -1.81683,-0.32283 z M 71.484731,160.42751 c -1.378841,-1.61291 -3.874985,-4.52923 -5.546985,-6.48069 -3.488829,-4.07197 -8.575405,-10.05587 -13.558573,-15.95045 -1.898758,-2.24604 -3.404845,-4.20525 -3.346857,-4.35379 0.449814,-1.15231 3.06328,-5.15962 3.365801,-5.1609 0.209207,-9.6e-4 6.401206,1.22832 13.76,2.73155 7.358797,1.50324 15.72391,3.21152 18.589145,3.79618 2.865232,0.58467 5.292944,1.14646 5.394909,1.24843 0.194944,0.19494 -0.821927,1.80181 -1.91256,3.02224 -0.828919,0.92757 -1.275514,0.91032 -6.190656,-0.23901 -3.873181,-0.90568 -4.125094,-0.92792 -4.530806,-0.4 -0.863693,1.12387 -7.40873,12.4103 -7.409555,12.77723 -3.2e-4,0.20803 1.367152,1.91355 3.039152,3.79006 1.672,1.8765 3.039999,3.68311 3.039999,4.01468 0,0.7035 -1.626435,4.13704 -1.959676,4.13704 -0.124496,0 -1.354496,-1.31966 -2.733338,-2.93257 z m -3.304525,-13.78743 c 0.418173,-0.748 1.740176,-3.016 2.937789,-5.04 1.197613,-2.024 2.177991,-3.85726 2.178615,-4.07391 0.0013,-0.4743 0.270761,-0.4107 -8.478864,-2.00169 -3.872,-0.70406 -7.506058,-1.41447 -8.075687,-1.57868 -0.614448,-0.17714 -1.108358,-0.18098 -1.214368,-0.009 -0.09828,0.15901 0.58378,1.19607 1.515684,2.30457 0.931904,1.1085 3.493795,4.20779 5.693091,6.8873 2.199299,2.67952 4.15278,4.87185 4.341075,4.87185 0.188294,0 0.684496,-0.612 1.102665,-1.36 z m 351.654724,-1.36916 c -7.95165,-12.20397 -7.49997,-11.40711 -6.78388,-11.96778 0.35338,-0.27668 2.71344,-1.98638 5.24461,-3.79932 13.92682,-9.97512 17.04925,-12.22017 19.96208,-14.35298 1.76,-1.28869 3.35165,-2.3448 3.53699,-2.34692 0.2722,-0.003 2.35136,2.6393 3.41546,4.34066 0.14672,0.23462 -0.56122,0.90636 -1.92,1.82183 -1.18384,0.79759 -5.24845,3.5627 -9.03245,6.14468 -3.784,2.58198 -8.63888,5.87227 -10.78867,7.31175 -2.14976,1.43948 -3.96614,2.76124 -4.03645,2.93724 -0.0703,0.176 1.56749,2.984 3.63949,6.24 2.07203,3.256 3.67242,6.00639 3.55648,6.11198 -0.11597,0.1056 -1.01312,0.64144 -1.99366,1.19077 l -1.78282,0.99877 z M 86.577745,127.29686 c -4.692707,-0.6224 -10.39344,-3.85561 -13.347107,-7.56991 -1.736771,-2.18402 -3.10775,-5.16491 -3.542342,-7.70204 -0.912182,-5.32529 1.958378,-12.593766 6.860179,-17.370481 3.143654,-3.063437 9.22127,-6.097069 10.913773,-5.447597 0.252688,0.09697 0.603945,0.907197 0.780576,1.800515 0.413376,2.09065 0.03861,2.648647 -2.387844,3.555344 -3.109167,1.161808 -4.879782,2.299813 -6.704015,4.308813 -2.29569,2.528196 -3.17705,4.074966 -3.830304,6.722146 -0.460157,1.86468 -0.48208,2.50109 -0.152381,4.42375 0.517267,3.01647 1.304518,4.6809 3.146832,6.6531 3.850355,4.12181 9.468323,6.42047 13.848137,5.66611 3.705174,-0.63816 7.997061,-4.09996 9.894641,-7.98093 1.76239,-3.60449 1.76271,-3.60307 -1.43482,-6.32917 l -2.784039,-2.37356 -2.011376,2.13356 c -1.106255,1.17346 -2.128044,2.13318 -2.270643,2.1327 -0.142595,-3.2e-4 -0.88006,-0.54047 -1.638806,-1.2 l -1.379542,-1.19913 3.743558,-4.08 c 2.058953,-2.244 3.855993,-4.079996 3.993414,-4.079996 0.137424,0 2.492864,2.195996 5.234304,4.879996 l 4.98444,4.88 -0.50968,2.24 c -1.32761,5.83467 -5.78986,11.55604 -11.153595,14.30081 -2.748595,1.40653 -6.940467,2.07536 -10.25336,1.63597 z m 311.091705,-11.47027 -1.54828,-1.70445 2.18828,-2.04556 c 1.20356,-1.12506 4.63629,-4.27834 7.62829,-7.0073 2.992,-2.72895 8.032,-7.368016 11.2,-10.309021 l 5.76,-5.347289 2.15354,2.333555 c 1.18441,1.283456 2.14886,2.405558 2.1432,2.493558 -0.006,0.088 -0.89152,0.88 -1.96861,1.76 -1.07706,0.880001 -3.56781,2.968001 -5.53501,4.639997 -1.96717,1.672 -5.64064,4.768 -8.16323,6.88 -2.52259,2.112 -6.24454,5.244 -8.27104,6.96 -2.02646,1.716 -3.76422,3.10446 -3.86166,3.08548 -0.0974,-0.019 -0.87392,-0.80152 -1.72548,-1.73897 z m -285.0117,-6.26289 c 0,-0.0948 -1.66614,-4.55336 -3.70253,-9.907966 -6.10451,-16.051535 -10.057475,-26.530159 -10.057475,-26.660607 0,-0.06763 0.995725,-0.927466 2.212725,-1.910755 l 2.21273,-1.787802 3.62727,2.120394 c 5.93439,3.469062 8.41842,4.928499 15.14728,8.899471 3.52,2.077293 7.984,4.703671 9.92,5.836397 1.936,1.132723 3.85938,2.277139 4.27417,2.543142 l 0.75418,0.483648 -1.71418,1.239908 c -0.94279,0.681948 -2.03797,1.244553 -2.43373,1.25023 -0.39575,0.0057 -2.39848,-1.093667 -4.4505,-2.442992 -3.49506,-2.298211 -3.77688,-2.424656 -4.45757,-2 -1.79208,1.118003 -11.33237,9.434089 -11.33237,9.878206 0,0.27244 0.72,2.28092 1.6,4.463286 0.88,2.18237 1.6,4.20373 1.6,4.49191 0,0.28818 -0.72,1.23314 -1.6,2.09991 -0.88,0.86677 -1.6,1.4984 -1.6,1.40362 z m 3.49659,-20.960522 c 2.47687,-2.065229 4.50341,-3.846848 4.50341,-3.959159 0,-0.112307 -2.772,-1.766857 -6.16,-3.676777 -3.388,-1.90992 -6.93173,-3.961136 -7.87495,-4.558253 -0.94322,-0.59712 -1.78925,-1.011373 -1.88006,-0.920563 -0.0908,0.09081 0.0829,0.783078 0.38606,1.538381 0.30314,0.755302 1.56443,4.253276 2.80287,7.773276 1.23845,3.52 2.37845,6.738637 2.53335,7.152531 0.1728,0.461741 0.45634,0.685485 0.73377,0.579024 0.24868,-0.09543 2.47867,-1.863235 4.95555,-3.92846 z m 269.01687,13.030882 c -2.90982,-1.07527 -4.51548,-2.154206 -11.10976,-7.465231 -3.2128,-2.587571 -4.68441,-3.965405 -4.49446,-4.208019 0.15533,-0.1984 2.14874,-2.880727 4.42979,-5.960727 2.28106,-3.08 6.22922,-8.408 8.77367,-11.839999 2.54444,-3.432 5.39779,-7.284 6.34076,-8.56 0.94298,-1.276 1.81092,-2.32 1.92877,-2.32 0.11783,0 3.18893,2.372217 6.82471,5.271593 6.78656,5.411984 8.84835,7.530263 10.28672,10.568406 1.43331,3.02752 1.88806,4.748925 1.90198,7.2 0.0246,4.305648 -1.83984,8.392717 -5.55565,12.179366 -4.06403,4.141501 -7.62345,5.733571 -13.28,5.939871 -3.26835,0.11921 -3.70061,0.0616 -6.04653,-0.80526 z m 8.71319,-4.464276 c 3.30992,-1.257659 7.65481,-5.053019 9.14006,-7.984014 2.55946,-5.050877 2.05936,-9.669159 -1.48413,-13.704957 -1.24931,-1.422905 -7.92265,-6.897494 -8.25606,-6.773017 -0.13594,0.05076 -1.59254,1.754675 -3.23686,3.786483 -1.64432,2.031808 -5.36567,6.615833 -8.26967,10.186726 -2.904,3.570889 -5.38083,6.670934 -5.50409,6.888985 -0.20932,0.370266 4.08966,4.167069 7.09004,6.261869 2.74314,1.915215 7.4321,2.511505 10.52071,1.337925 z M 145.51124,80.262029 c -5.99192,-9.325344 -10.39471,-16.223609 -12.52362,-19.621945 -1.37821,-2.2 -2.69425,-4.204864 -2.92454,-4.455258 -0.35648,-0.3876 -1.14738,0.02851 -5.3221,2.8 -2.69687,1.790394 -4.98933,3.255258 -5.09435,3.255258 -0.26373,0 -2.64724,-3.492285 -2.48213,-3.636787 0.12077,-0.105693 5.13423,-3.20329 20.50991,-12.672163 2.93517,-1.807578 5.44337,-3.283123 5.57379,-3.278992 0.13043,0.0041 0.71564,0.859437 1.30048,1.900675 l 1.06334,1.893161 -5.27713,2.966874 c -2.90243,1.631779 -5.27714,3.057181 -5.27714,3.167552 0,0.110374 0.70189,1.356957 1.55975,2.770179 2.55605,4.210794 13.68369,22.987241 14.11451,23.816425 0.32473,0.624979 0.31771,0.816288 -0.0379,1.033629 -0.24,0.146688 -1.18889,0.711446 -2.10863,1.255021 l -1.67226,0.988313 z m 13.08623,-5.301945 c -0.0661,-0.22 -0.78366,-8.464 -1.59456,-18.32 -0.8109,-9.856 -1.53641,-18.395225 -1.61225,-18.976061 -0.13569,-1.039248 -0.099,-1.073769 2.30375,-2.168745 3.80808,-1.735402 3.35149,-1.87688 6.96334,2.157609 1.76,1.965946 5.864,6.46809 9.12,10.004765 7.49311,8.139037 13.47416,14.794256 13.54512,15.071897 0.0977,0.382244 -3.11624,1.447898 -4.09529,1.357888 -0.76968,-0.07076 -1.49908,-0.736368 -3.84,-3.504182 -1.58941,-1.879254 -3.0556,-3.427254 -3.2582,-3.44 -0.42881,-0.02698 -13.5778,5.666906 -13.98654,6.05656 -0.15264,0.14552 -0.0279,2.260105 0.28052,4.754803 0.30548,2.471002 0.47241,4.709062 0.37095,4.973462 -0.17288,0.450519 -3.2794,2.422429 -3.8266,2.429002 -0.13753,0.0016 -0.30414,-0.176998 -0.37024,-0.396998 z m 8.82706,-18.504816 c 2.87827,-1.245651 5.36318,-2.390813 5.52202,-2.544806 0.22908,-0.22209 -5.73232,-6.783076 -12.05765,-13.270378 -0.62007,-0.635952 -0.62283,-0.627853 -0.43574,1.28 0.10355,1.056 0.34343,4.944 0.53305,8.64 0.36702,7.153616 0.48102,8.16 0.92442,8.16 0.15437,0 2.63563,-1.019168 5.5139,-2.264816 z M 342.91288,73.90808 c -4.27776,-1.173529 -8.87408,-4.429123 -11.05798,-7.832432 -1.86599,-2.907875 -2.66829,-5.793497 -2.66791,-9.595564 0,-6.629254 2.45354,-12.219158 6.97143,-15.887523 3.50182,-2.843331 6.66137,-3.81319 11.5894,-3.557472 10.70851,0.555674 19.6145,9.885069 18.52778,19.408643 -0.71395,6.256771 -5.34707,13.1023 -10.73786,15.865388 -3.87283,1.985044 -8.89766,2.621447 -12.62486,1.59896 z m 7.19779,-4.821481 c 6.84602,-2.033047 12.1391,-11.694854 10.10662,-18.448249 -1.9608,-6.51529 -11.14499,-10.616167 -17.40979,-7.773741 -5.02329,2.279123 -8.67641,9.105619 -8.31798,15.543587 0.10922,1.961677 0.33312,2.781593 1.20784,4.422697 2.77011,5.197264 8.94816,7.878682 14.41331,6.255706 z m -34.97293,-6.898445 c -1.012,-0.352771 -1.84,-0.798563 -1.84,-0.990646 0,-0.192083 0.70751,-2.520083 1.57224,-5.173335 0.86473,-2.653247 3.33036,-10.224089 5.47916,-16.824089 2.14883,-6.6 3.96304,-12.061746 4.03164,-12.137215 0.13626,-0.149918 3.17709,0.753163 4.83744,1.436647 0.92036,0.378865 1.00445,0.51331 0.72823,1.164443 -0.27587,0.650331 -10.22533,28.36287 -11.4371,31.856125 -0.54018,1.557219 -0.71916,1.592681 -3.37161,0.66807 z m -17.2,-4.661181 c -4.664,-1.149251 -8.50375,-2.106947 -8.53279,-2.128217 -0.029,-0.02128 0.34917,-2.054672 0.84045,-4.518672 0.49129,-2.464 2.01305,-10.384 3.38169,-17.6 1.36865,-7.216 2.57924,-13.225594 2.6902,-13.354653 0.11097,-0.129059 1.45697,0.0073 2.99111,0.303076 2.43713,0.469828 2.78722,0.62068 2.77253,1.194653 -0.009,0.361309 -1.504,7.280924 -3.32168,15.376924 -1.81767,8.096 -3.1952,14.839699 -3.06118,14.985997 0.13402,0.146301 3.23032,1.039849 6.88067,1.985664 3.65035,0.945814 6.66666,1.762115 6.70292,1.814003 0.0363,0.05188 -0.20979,0.994336 -0.54678,2.094336 -0.55662,1.816969 -0.69068,1.997091 -1.46492,1.968217 -0.46872,-0.01748 -4.66822,-0.972076 -9.33222,-2.121328 z m -15.98256,-3.315945 c -0.78241,-0.153411 -1.60963,-0.465994 -1.83826,-0.694624 -0.22863,-0.22863 -0.85395,-2.420803 -1.38959,-4.871498 -0.53564,-2.450691 -1.02446,-4.506361 -1.08625,-4.568159 -0.27626,-0.276256 -15.31987,-1.385415 -15.5373,-1.145556 -0.13406,0.147892 -0.93519,1.996893 -1.78029,4.108893 -0.8451,2.112 -1.74993,4.092 -2.01074,4.4 -0.36632,0.432608 -0.97248,0.56 -2.6646,0.56 -1.20472,0 -2.19039,-0.108 -2.19037,-0.24 2e-5,-0.132 2.02896,-4.848 4.50876,-10.48 8.69144,-19.739592 10.28218,-23.36742 10.64521,-24.277381 0.36303,-0.909946 0.38285,-0.9158 2.44599,-0.722275 1.144,0.107309 2.53779,0.196131 3.0973,0.197382 0.95251,0.0021 1.04779,0.109252 1.49622,1.682275 0.52626,1.846034 9.16648,36.018508 9.16648,36.253861 0,0.20762 -1.20415,0.12226 -2.86256,-0.202918 z m -5.45744,-14.768944 c 0,-0.755545 -4.58105,-17.521999 -4.78749,-17.521999 -0.22606,0 -7.69251,16.169577 -7.69251,16.659142 0,0.165472 0.396,0.311561 0.88,0.324646 0.484,0.01309 2.68,0.210026 4.88,0.437651 5.46539,0.565475 6.72,0.584253 6.72,0.10056 z m -45.6953,13.382643 c -0.26402,-0.405027 -4.24233,-35.417216 -4.0582,-35.71516 0.0688,-0.111301 3.33822,-0.464918 7.26539,-0.785814 5.81807,-0.475406 7.59466,-0.515874 9.59385,-0.218533 4.47541,0.665635 7.52693,2.540935 9.15482,5.626058 0.78216,1.482337 0.85932,1.945341 0.85801,5.148806 -0.002,4.08846 -0.53875,5.575424 -2.88624,7.990807 -2.55654,2.630492 -5.93722,3.809452 -12.04705,4.201228 -1.87811,0.120426 -3.56149,0.309661 -3.74087,0.420519 -0.21903,0.135373 -0.15298,2.270326 0.20114,6.50143 0.29,3.464928 0.44633,6.380803 0.34741,6.479725 -0.39071,0.390717 -4.4636,0.695584 -4.68826,0.350934 z m 8.12226,-18.080153 c 6.28392,-0.52113 9.06831,-2.81175 9.08602,-7.474768 0.012,-3.166699 -1.23097,-5.235756 -3.83297,-6.380235 -1.14617,-0.504136 -2.11928,-0.629363 -4.76896,-0.613699 -1.83092,0.01082 -3.95492,0.11355 -4.72,0.22828 -1.3845,0.20762 -1.39103,0.214825 -1.38675,1.532267 0.002,0.728016 0.21743,3.915665 0.47792,7.083665 0.26048,3.168 0.47455,5.796 0.4757,5.84 0.003,0.127139 1.20753,0.07156 4.66904,-0.21551 z m -42.34954,9.97551 c -0.19388,-0.836 -0.43774,-1.73999 -0.5419,-2.00887 -0.15494,-0.399933 0.87433,-0.742851 5.65755,-1.884915 3.21581,-0.767828 5.97378,-1.411834 6.12881,-1.43113 0.37058,-0.04613 1.24266,3.699805 0.92392,3.968621 -0.21622,0.182358 -11.15507,2.891542 -11.63083,2.880563 -0.10178,-0.0022 -0.34367,-0.688269 -0.53755,-1.524269 z m 1.36259,351.345236 c 1.584,-0.16147 3.528,-0.45293 4.32,-0.64774 0.792,-0.19479 2.52,-0.51808 3.84,-0.71844 1.32,-0.20032 2.76,-0.495 3.2,-0.65478 1.34858,-0.48979 6.14425,-1.24339 7.9154,-1.24384 0.92148,-2.6e-4 2.28948,-0.14173 3.04,-0.31443 0.75053,-0.17271 2.5166,-0.55149 3.9246,-0.84176 4.04785,-0.8345 6.7959,-1.58282 10.24,-2.78845 5.14213,-1.80003 5.78704,-2.06266 8.89037,-3.62038 9.64697,-4.84231 17.5467,-12.2096 22.33797,-20.83242 0.39397,-0.70902 1.9058,-1.61354 6.72,-4.02054 11.77768,-5.88855 25.78354,-13.57271 32.77165,-17.97981 0.88,-0.55498 2.05637,-1.28659 2.61415,-1.62586 0.85533,-0.52019 7.35989,-4.9135 10.02585,-6.77164 2.14953,-1.49818 8.38128,-6.59162 10.12007,-8.27149 4.39417,-4.24531 5.81504,-6.75188 7.05939,-12.45367 0.74173,-3.39866 0.27587,-14.25723 -0.9816,-22.88 -0.2695,-1.848 -0.63747,-4.41323 -0.81773,-5.70053 -0.18025,-1.28729 -0.40477,-2.46518 -0.49894,-2.61754 -0.0942,-0.15236 -0.31392,-1.33112 -0.48839,-2.61947 -0.17446,-1.28835 -0.54566,-3.49446 -0.82496,-4.90246 -0.27926,-1.408 -0.62243,-3.28 -0.76262,-4.16 -0.14016,-0.88 -0.70739,-3.688 -1.26045,-6.24 -0.55309,-2.552 -1.14477,-5.288 -1.31488,-6.08 -0.17008,-0.792 -0.53456,-2.376 -0.80995,-3.52 -0.27536,-1.144 -0.61814,-2.656 -0.76173,-3.35999 -0.23117,-1.13375 -1.36243,-5.83891 -2.76969,-11.52 -1.31732,-5.31805 -1.46186,-6.49165 -1.47796,-12 -0.0189,-6.48999 0.37072,-8.63167 2.30029,-12.643 1.46218,-3.03961 3.17725,-5.08214 5.73123,-6.82549 2.06621,-1.41038 5.64903,-2.96346 8.35792,-3.623 2.24602,-0.54685 14.43181,-0.53274 15.80439,0.0183 0.50841,0.20411 0.9766,0.31888 1.04044,0.25505 0.0638,-0.0638 0.32922,-1.61587 0.58976,-3.44896 0.55559,-3.90922 0.6584,-21.16206 0.14759,-24.77289 -0.17427,-1.232 -0.4529,-3.752 -0.61914,-5.6 -0.16624,-1.848 -0.53049,-4.584 -0.8095,-6.08 -0.27898,-1.496 -0.63114,-3.512 -0.78253,-4.48 -0.15142,-0.968 -0.44637,-2.408 -0.65546,-3.2 -0.20905,-0.792 -0.52646,-2.016 -0.70534,-2.72 -1.4832,-5.8379 -4.37705,-13.5695 -7.15933,-19.12772 -1.49542,-2.98741 -6.0239,-10.37603 -7.24121,-11.81459 -0.40131,-0.47428 -1.08301,-1.33828 -1.51491,-1.92 -0.83488,-1.12454 -9.22676,-9.58329 -10.57488,-10.65915 -0.4401,-0.3512 -1.22836,-0.91499 -1.75172,-1.25288 -0.52332,-0.3379 -1.09926,-0.7423 -1.27984,-0.89867 -0.97257,-0.84224 -5.15634,-3.37517 -7.52832,-4.55776 -2.39042,-1.1918 -3.5868,-1.71355 -6.26216,-2.73099 -0.36419,-0.1385 -1.32888,-0.82885 -2.14376,-1.53413 -2.0333,-1.759806 -6.39666,-4.546424 -8.71408,-5.565157 -3.86261,-1.698003 -7.1881,-2.938198 -9.44,-3.520512 -5.09774,-1.318224 -6.19346,-1.534745 -11.04,-2.181593 -1.408,-0.18792 -3.208,-0.47081 -4,-0.628647 -3.56832,-0.711123 -15.42048,-0.984944 -24.15999,-0.558173 -5.35608,0.261549 -8.20847,0.694375 -9.27121,1.406826 -0.34716,0.232733 -0.96863,0.423152 -1.38103,0.423152 -0.41241,0 -1.01854,0.143805 -1.34695,0.319565 -0.66042,0.353446 -3.91613,0.828502 -8.80081,1.284169 -1.76,0.164183 -4.16359,0.446506 -5.3413,0.627389 -1.17772,0.180883 -3.95866,0.328877 -6.17988,0.328877 -2.73574,0 -4.57412,0.161018 -5.6987,0.49913 -0.91307,0.274521 -2.23612,0.643273 -2.94012,0.819446 -15.41959,3.858712 -28.86702,11.130638 -35.2369,19.054958 -0.68371,0.85055 -1.31645,1.61846 -1.4061,1.70646 -0.3438,0.33749 -1.85963,2.79304 -2.50466,4.0574 -1.30125,2.55065 -2.13414,5.23442 -2.56425,8.2626 -0.27929,1.96627 -0.4407,2.23383 -1.91499,3.17418 -2.49474,1.59123 -6.16274,5.61801 -7.98606,8.76719 -1.25426,2.1663 -4.54704,8.95889 -4.54704,9.37995 0,0.26211 -0.34518,1.40762 -2.10891,6.99867 -0.77296,2.45028 -0.50494,3.25839 0.31607,0.953 4.15354,-11.66309 9.83808,-21.53759 14.27275,-24.79294 1.98213,-1.45501 3.48263,-2.08223 6.24009,-2.60838 1.232,-0.23507 3.032,-0.57956 4,-0.76553 2.00188,-0.38459 6.61797,-1.17705 9.38997,-1.61201 1.02848,-0.16138 1.97412,-0.35779 2.10142,-0.43646 0.12729,-0.0787 1.3738,-0.29823 2.77002,-0.4879 1.39622,-0.18968 3.69059,-0.55664 5.09859,-0.81548 1.408,-0.25883 3.54123,-0.61264 4.74053,-0.78626 1.19929,-0.17361 2.28893,-0.38264 2.42141,-0.46453 0.13249,-0.0819 1.38325,-0.30348 2.77947,-0.49246 1.39622,-0.18897 3.83459,-0.56702 5.41859,-0.8401 1.584,-0.27309 3.672,-0.62129 4.64,-0.77377 0.968,-0.15248 3.128,-0.5067 4.8,-0.78714 1.672,-0.28044 4.12,-0.65319 5.44,-0.82833 1.32,-0.17514 2.616,-0.40308 2.88,-0.50652 0.264,-0.10345 1.488,-0.30262 2.72,-0.44261 1.232,-0.13999 4.328,-0.54936 6.88,-0.90971 5.90267,-0.83348 13.01973,-1.64287 14.44589,-1.64287 0.69829,0 3.03265,0.8921 6.36825,2.43371 7.78687,3.59884 14.74039,6.20168 16.59035,6.21009 1.1507,0.005 3.77607,0.76357 5.3155,1.53539 1.94781,0.97656 4.19832,3.40033 5.35765,5.77012 1.01423,2.0732 1.04159,2.23861 1.01387,6.13069 -0.0247,3.47147 -0.14385,4.33826 -0.90167,6.56 -1.22834,3.60122 -4.02414,9.27601 -5.92567,12.02766 -0.88627,1.28249 -1.57827,2.35557 -1.53778,2.38463 0.0405,0.029 1.6576,0.95507 3.5936,2.0578 9.66129,5.503 17.30161,12.3904 23.24074,20.9505 2.36285,3.40558 5.83954,11.0311 6.72011,14.73941 1.13331,4.77269 1.30326,6.20708 1.45964,12.32 0.19323,7.55312 -0.15193,10.49761 -2.02559,17.28 -0.91836,3.32437 -4.96899,11.18824 -9.80737,19.04 -0.86763,1.408 -1.81377,2.96936 -2.10252,3.4697 -0.28875,0.50034 -1.24501,1.89907 -2.12501,3.10829 -0.88,1.20921 -2.50888,3.46384 -3.61975,5.01029 -5.55456,7.73258 -13.96643,16.97399 -19.61533,21.54972 -0.7727,0.62591 -2.55692,2.07154 -3.96492,3.21252 -1.408,1.14097 -3.28,2.4884 -4.16,2.99429 -0.88,0.50588 -1.672,1.01697 -1.76,1.13575 -0.53962,0.72837 -7.65583,4.51347 -12.10653,6.43943 -1.69457,0.73331 -3.67033,0.77742 -4.35061,0.0971 -0.63367,-0.63367 -0.6619,-3.03619 -0.0583,-4.96014 2.16735,-6.90814 1.97159,-14.67925 -0.47326,-18.78758 -1.15592,-1.94241 -4.15535,-4.83619 -6.2113,-5.99251 -1.91494,-1.07701 -2.52078,-1.27508 -7.36,-2.40626 -3.69734,-0.86425 -12.50208,-0.84465 -18.56,0.0413 -2.464,0.36035 -5.416,0.77157 -6.56,0.9138 -1.144,0.14224 -2.728,0.41255 -3.52,0.6007 -0.792,0.18814 -2.448,0.50581 -3.68,0.70593 -1.232,0.20013 -3.104,0.55365 -4.16,0.7856 -1.056,0.23196 -3.072,0.66848 -4.48,0.97006 -1.408,0.30157 -3.64,0.83576 -4.96,1.18709 -1.32,0.35133 -2.688,0.71054 -3.04,0.79824 -3.10717,0.77418 -9.83708,2.93148 -13.28,4.25697 -0.968,0.37267 -2.12,0.79338 -2.56,0.93492 -1.88035,0.60486 -8.02924,3.69284 -10.95983,5.50405 -3.7655,2.32721 -8.12554,6.33885 -9.63057,8.86103 -0.59391,0.9953 -1.3414,2.8444 -1.66108,4.10912 -0.63029,2.49349 -0.61625,2.5889 1.30952,8.90051 0.2685,0.88 0.61629,2.032 0.77286,2.56 0.15658,0.528 0.52258,1.752 0.81333,2.72 0.29075,0.968 0.59564,2.12 0.67753,2.56 0.0819,0.44 0.34925,1.52 0.59412,2.4 0.24487,0.88 0.60672,2.248 0.80412,3.04 0.19739,0.792 0.56018,2.16 0.8062,3.04 0.24602,0.88 0.51572,2.032 0.59932,2.56 0.14466,0.91357 0.56337,2.82852 1.15448,5.28 0.72269,2.99719 1.03519,4.46503 1.29443,6.08 0.15538,0.968 0.51204,2.984 0.79257,4.48 0.28052,1.496 0.64477,3.872 0.80943,5.28 0.16466,1.408 0.38963,2.776 0.49994,3.04 0.4229,1.0121 0.86467,8.42816 0.86734,14.56 0.003,6.39235 -0.31452,10.08119 -1.01333,11.78083 -0.52122,1.26768 -0.46017,4.00042 0.13454,6.02244 0.2777,0.94419 0.6673,2.29273 0.86576,2.99673 1.43837,5.10218 5.54055,10.85997 9.84855,13.82336 1.95306,1.34346 6.1994,3.41831 7.98077,3.89952 0.792,0.21395 2.10732,0.59783 2.92294,0.85306 0.81563,0.25523 2.11163,0.47417 2.88,0.48656 0.76838,0.0125 1.68506,0.15104 2.03706,0.30813 0.74703,0.3334 9.89799,0.16092 14.08,-0.26538 z m -15.24991,-87.25726 c -0.11545,-0.11795 -1.55545,-0.33525 -3.2,-0.48289 -3.36418,-0.302 -8.89219,-1.36564 -11.31009,-2.17617 -0.528,-0.177 -2.02829,-0.64266 -3.33398,-1.0348 -2.80623,-0.84281 -3.86602,-1.74647 -3.86602,-3.29643 0,-2.03692 1.45228,-3.1773 6.24,-4.89984 2.37332,-0.85388 4.71474,-1.57537 6.56,-2.0214 0.616,-0.1489 2.2,-0.54942 3.52,-0.89004 1.32,-0.34062 3.552,-0.87326 4.96,-1.18364 1.408,-0.31037 3.064,-0.68617 3.68,-0.83512 3.02857,-0.73228 9.18659,-1.99833 16.16,-3.3224 1.408,-0.26735 2.992,-0.57154 3.52,-0.676 3.67681,-0.72738 6.01695,-1.15437 7.68,-1.40132 1.056,-0.1568 2.136,-0.37264 2.4,-0.47964 0.264,-0.107 1.416,-0.32915 2.56,-0.49367 1.144,-0.16452 3.376,-0.53306 4.96,-0.81898 1.584,-0.28592 3.744,-0.64669 4.8,-0.80172 1.056,-0.15502 3.072,-0.50505 4.48,-0.77784 4.73229,-0.91684 5.92,-0.47778 5.92,2.18846 0,1.59243 -0.12878,1.77216 -3.37673,4.71247 -8.13164,7.36146 -18.44188,13.38315 -27.11717,15.83779 -0.91636,0.25928 -2.1701,0.62004 -2.7861,0.80168 -1.92511,0.56767 -5.49503,1.26055 -8.16,1.58376 -3.28226,0.39807 -14.01428,0.74935 -14.28991,0.46774 z m 18.80432,-4.94306 c 7.09878,-1.52631 7.50392,-1.65619 13.08559,-4.19495 4.57182,-2.07944 6.4612,-3.14136 9.15926,-5.14798 3.05615,-2.27292 3.43917,-2.6706 3.79451,-3.93977 0.9315,-3.32698 0.33241,-3.322 -18.87377,0.15717 -13.6957,2.48095 -32.80504,7.23836 -36.40771,9.06397 -1.7232,0.87321 -2.36734,1.90013 -1.62518,2.59093 0.87184,0.81152 5.05944,2.1162 8.14479,2.53758 1.74245,0.23797 5.91958,0.44965 9.28251,0.4704 l 6.11441,0.0377 z m 57.56558,-19.80019 c 1.056,-0.6301 1.992,-1.23891 2.08,-1.35289 0.088,-0.11399 0.88,-0.62115 1.76,-1.12703 0.88,-0.50589 2.752,-1.85332 4.16,-2.99429 1.408,-1.14098 3.19222,-2.58661 3.96492,-3.21252 5.51737,-4.46919 13.90587,-13.65008 19.45777,-21.29578 2.60502,-3.58747 2.54145,-3.49551 5.3354,-7.71729 3.07462,-4.64587 3.0018,-4.52924 5.13196,-8.21895 4.35238,-7.53888 6.45054,-12.22191 7.55652,-16.86598 2.06524,-8.67199 1.52059,-18.8703 -1.42701,-26.72 -1.11118,-2.95917 -3.42628,-7.60083 -4.90849,-9.84128 -3.80487,-5.7513 -10.46755,-12.55231 -16.2728,-16.61065 -3.92424,-2.74337 -9.49539,-6.02807 -10.22413,-6.02807 -0.26578,0 -0.83668,-0.35346 -1.26868,-0.78546 -0.99521,-0.99521 -1.06898,-2.9278 -0.15604,-4.0884 3.00388,-3.81882 6.39391,-10.06239 7.86543,-14.48614 1.14491,-3.44187 1.20856,-6.73128 0.17174,-8.87546 -1.56548,-3.23748 -4.71634,-5.39963 -8.68855,-5.96216 -3.56307,-0.50459 -9.94083,-2.8837 -18.04494,-6.73133 l -3.89581,-1.84963 -3.97864,0.44159 c -2.18826,0.24288 -6.06664,0.73712 -8.61864,1.09832 -2.552,0.3612 -5.648,0.77126 -6.88,0.91125 -1.232,0.13999 -2.456,0.33916 -2.72,0.44261 -0.264,0.10344 -1.56,0.33138 -2.88,0.50652 -1.32,0.17514 -3.768,0.54789 -5.44,0.82833 -1.672,0.28044 -3.832,0.63466 -4.8,0.78714 -0.968,0.15248 -3.056,0.50068 -4.64,0.77377 -1.584,0.27308 -4.02237,0.65113 -5.41859,0.8401 -1.39622,0.18898 -2.64698,0.41058 -2.77947,0.49246 -0.13248,0.0819 -1.22212,0.29092 -2.42141,0.46453 -1.1993,0.17362 -3.33253,0.52743 -4.74053,0.78626 -1.408,0.25884 -3.70237,0.6258 -5.09859,0.81548 -1.39622,0.18967 -2.64273,0.40923 -2.77002,0.4879 -0.1273,0.0787 -1.07294,0.27508 -2.10142,0.43646 -2.57435,0.40394 -7.30184,1.21421 -9.22997,1.58197 -0.88,0.16784 -2.536,0.47274 -3.68,0.67755 -2.7521,0.49271 -3.71005,0.8669 -5.48554,2.14275 -1.55299,1.11597 -4.22496,4.25493 -5.94462,6.98359 -1.18971,1.88776 -4.19795,7.89604 -5.2071,10.4 -0.39013,0.968 -1.04061,2.552 -1.44552,3.52 -0.4049,0.968 -1.47064,3.992 -2.36831,6.72 -0.89767,2.728 -1.78484,5.392 -1.9715,5.92 -0.67817,1.91834 -3.01177,10.94906 -3.33249,12.8963 -0.12468,0.75697 -0.50351,1.63421 -0.84185,1.94941 -0.54017,0.50326 -0.57693,0.76456 -0.30152,2.1437 1.12406,5.62906 1.2367,8.82313 0.36176,10.25803 l -0.6143,1.00744 1.17549,-0.3455 c 0.65104,-0.19134 3.95953,-0.35528 7.4155,-0.36744 6.6696,-0.0234 7.72628,0.15725 11.2,1.91536 3.00895,1.52289 5.75019,5.50358 5.75687,8.35984 0.005,2.11789 -0.42786,2.34062 -4.57973,2.35679 -1.96743,0.008 -4.22514,0.15954 -5.01714,0.3375 -0.792,0.17796 -2.016,0.44867 -2.72,0.60158 -5.92966,1.28793 -16.74031,7.01314 -21.66324,11.47263 -0.96336,0.87267 -0.95799,1.26359 0.0644,4.69436 0.85208,2.85919 2.04077,5.37292 4.1695,8.81728 1.62272,2.62562 1.90932,3.31488 1.90932,4.59192 0,0.82642 -0.22788,1.94324 -0.50639,2.48183 -0.70753,1.3682 -2.52198,7.02651 -3.11338,9.70897 -1.12262,5.09192 -1.30666,6.59972 -1.30847,10.71999 -0.003,6.67224 1.11334,11.34799 4.18266,17.52 0.98465,1.98 1.82291,3.6 1.8628,3.6 0.0399,0 1.42483,-1.34853 3.07765,-2.99673 4.62718,-4.61427 11.23917,-8.50831 20.28513,-11.94667 0.704,-0.26759 1.62352,-0.6206 2.04338,-0.78447 2.20205,-0.85943 9.75838,-3.23135 12.35662,-3.87873 0.352,-0.0877 1.72,-0.44691 3.04,-0.79824 1.32,-0.35133 3.552,-0.88552 4.96,-1.18709 1.408,-0.30158 3.424,-0.7381 4.48,-0.97006 1.056,-0.23195 2.928,-0.58547 4.16,-0.7856 1.232,-0.20012 2.888,-0.51779 3.68,-0.70593 0.792,-0.18815 2.376,-0.45846 3.52,-0.6007 1.144,-0.14223 4.096,-0.55345 6.56,-0.9138 5.85984,-0.857 17.44299,-0.94339 21.40807,-0.15966 9.43277,1.86445 15.04924,6.37499 17.16933,13.78854 0.50564,1.76816 0.62116,3.1691 0.61496,7.45813 -0.004,2.90456 -0.15028,5.85701 -0.32463,6.56101 -0.17435,0.704 -0.43869,1.88329 -0.58744,2.62065 l -0.27044,1.34065 2.91507,-1.45546 c 1.60329,-0.8005 3.77907,-1.97099 4.83507,-2.6011 z M 191.5606,195.81722 c -1.65755,-1.65755 0.82142,-7.64003 5.0943,-12.29405 2.83335,-3.08607 3.47447,-3.63417 6.54969,-5.59932 2.75075,-1.75782 6.05334,-3.2273 9.93316,-4.41977 7.08608,-2.17792 12.01089,-2.784 22.62174,-2.784 h 8.43035 l 1.67395,0.9151 c 11.20826,6.12722 16.24425,9.75445 19.32647,13.9201 1.18524,1.60187 1.38748,2.09996 1.38748,3.41714 0,2.72861 -1.50942,3.24735 -4.72912,1.62525 -6.27236,-3.16004 -15.70207,-4.58909 -25.90422,-3.92573 -5.77148,0.37526 -12.65333,1.31128 -16.88665,2.29678 -4.45076,1.03612 -11.06221,2.69172 -12.48,3.12517 -3.09235,0.9454 -8.02233,2.59778 -10.16731,3.40776 -2.47662,0.93523 -4.12305,1.04236 -4.84984,0.31557 z m 8.61715,-5.70649 c 5.56389,-1.82162 8.61608,-2.64508 17.28,-4.66201 4.5937,-1.0694 11.2928,-1.94663 17.72213,-2.32069 8.93391,-0.51976 17.27637,0.14341 22.58293,1.79519 0.87179,0.27136 1.63869,0.43977 1.70421,0.37424 0.39706,-0.39705 -8.14761,-6.16122 -13.35095,-9.00644 l -3.75077,-2.05094 h -6.70663 c -6.95116,0 -11.63155,0.45362 -16.63579,1.61234 -3.27141,0.75748 -8.32626,2.4281 -9.20132,3.04102 -0.36642,0.25665 -0.8487,0.46664 -1.07174,0.46664 -0.46025,0 -4.58664,2.5803 -5.95782,3.72552 -1.72821,1.44341 -5.69048,5.97099 -6.34047,7.24506 -0.61466,1.20484 -0.61843,1.26734 -0.0636,1.05426 0.32439,-0.12458 2.02981,-0.69796 3.78981,-1.27419 z m -59.2,22.56102 c 4.75991,-3.09693 13.0482,-6.86901 16.96,-7.71866 0.704,-0.15291 1.928,-0.42362 2.72,-0.60158 0.792,-0.17796 2.628,-0.32983 4.08,-0.3375 3.21173,-0.017 3.30289,-0.25416 0.95211,-2.47743 -2.59695,-2.45609 -4.90535,-3.13072 -10.63211,-3.10722 -3.25294,0.0133 -5.18118,0.18601 -7.04,0.63039 -2.43663,0.58252 -2.67581,0.72252 -4.96294,2.905 -3.33886,3.18609 -4.61829,5.77066 -5.56328,11.23836 l -0.40149,2.32304 0.66385,-0.5944 c 0.36512,-0.32691 1.81586,-1.34391 3.22386,-2.26 z m 9.1102,-54.59167 c 0,-0.176 -0.13959,-0.104 -0.3102,0.16 -0.17061,0.264 -0.3102,0.624 -0.3102,0.8 0,0.176 0.13959,0.104 0.3102,-0.16 0.17061,-0.264 0.3102,-0.624 0.3102,-0.8 z"
       id="path177" />
  </g>
</svg>
